<svg width="325" height="565" fill="none" xmlns="http://www.w3.org/2000/svg" opacity=".22"><path d="M192.775 380.722a4.029 4.029 0 114.028 4.028c-2.224.025-4.028-1.804-4.028-4.028z" fill="url(#paint0_linear_3_364)"/><path d="M197.47 316.366h-1.334v62.057h1.334v-62.057z" fill="url(#paint1_linear_3_364)"/><path d="M88.852 290.614a4.03 4.03 0 118.058 0 4.03 4.03 0 01-8.058 0z" fill="url(#paint2_linear_3_364)"/><path d="M93.547 127.673h-1.334v160.618h1.334V127.673z" fill="url(#paint3_linear_3_364)"/><path d="M42.908 151.745a4.029 4.029 0 114.029 4.028c-2.2.025-4.029-1.779-4.029-4.028z" fill="url(#paint4_linear_3_364)"/><path d="M47.629 60.45h-1.335v88.996h1.335V60.451z" fill="url(#paint5_linear_3_364)"/><path d="M167.641 221.884a4.029 4.029 0 114.028 4.028c-2.224.025-4.028-1.804-4.028-4.028z" fill="url(#paint6_linear_3_364)"/><path d="M172.336 130.59h-1.334v88.995h1.334V130.59z" fill="url(#paint7_linear_3_364)"/><path d="M295.165 228.903a4.029 4.029 0 118.056 0 4.029 4.029 0 01-8.056 0z" fill="url(#paint8_linear_3_364)"/><path d="M299.886 137.608h-1.335v88.996h1.335v-88.996z" fill="url(#paint9_linear_3_364)"/><path d="M155.802 296.273a4.029 4.029 0 114.029 4.029c-2.225.024-4.029-1.804-4.029-4.029z" fill="url(#paint10_linear_3_364)"/><path d="M160.523 127.055h-1.335V293.95h1.335V127.055z" fill="url(#paint11_linear_3_364)"/><path d="M179.256 265.677a4.029 4.029 0 118.058.002 4.029 4.029 0 01-8.058-.002z" fill="url(#paint12_linear_3_364)"/><path d="M183.976 130.12h-1.334v133.234h1.334V130.12z" fill="url(#paint13_linear_3_364)"/><path d="M121.771 442.655a4.029 4.029 0 114.028 4.029c-2.199 0-4.028-1.805-4.028-4.029z" fill="url(#paint14_linear_3_364)"/><path d="M126.491 133.308h-1.334v307.024h1.334V133.308z" fill="url(#paint15_linear_3_364)"/><path d="M239.287 309.347a4.029 4.029 0 118.058.002 4.029 4.029 0 01-8.058-.002z" fill="url(#paint16_linear_3_364)"/><path d="M244.007 0h-1.334v307.024h1.334V0z" fill="url(#paint17_linear_3_364)"/><path d="M300.454 326.523a4.029 4.029 0 118.058.002 4.029 4.029 0 01-8.058-.002z" fill="url(#paint18_linear_3_364)"/><path d="M305.15 17.176h-1.335V324.2h1.335V17.176z" fill="url(#paint19_linear_3_364)"/><path d="M53.61 510.248a4.029 4.029 0 114.028 4.029c-2.2 0-4.029-1.804-4.029-4.029z" fill="url(#paint20_linear_3_364)"/><path d="M58.33 200.901h-1.335v307.024h1.335V200.901z" fill="url(#paint21_linear_3_364)"/><path d="M311.427 388.63a4.03 4.03 0 018.057 0 4.03 4.03 0 01-8.057 0z" fill="url(#paint22_linear_3_364)"/><path d="M316.148 79.283h-1.335v307.024h1.335V79.283z" fill="url(#paint23_linear_3_364)"/><path d="M.894 428.197a4.029 4.029 0 114.028 4.029c-2.224.025-4.028-1.78-4.028-4.029z" fill="url(#paint24_linear_3_364)"/><path d="M5.59 256.014H4.255v169.86H5.59v-169.86z" fill="url(#paint25_linear_3_364)"/><path d="M70.34 243.089a4.03 4.03 0 114.03 4.028c-2.225.025-4.03-1.779-4.03-4.028z" fill="url(#paint26_linear_3_364)"/><path d="M75.061 117.763h-1.334V240.79h1.334V117.763z" fill="url(#paint27_linear_3_364)"/><path d="M289.976 460.202a4.029 4.029 0 118.058.002 4.029 4.029 0 01-8.058-.002z" fill="url(#paint28_linear_3_364)"/><path d="M294.696 287.994h-1.335v169.861h1.335V287.994z" fill="url(#paint29_linear_3_364)"/><defs><linearGradient id="paint0_linear_3_364" x1="196.804" y1="358.066" x2="196.804" y2="288.068" gradientUnits="userSpaceOnUse"><stop stop-color="#A4FFFF"/><stop offset="1" stop-color="#A4FFFF" stop-opacity="0"/></linearGradient><linearGradient id="paint1_linear_3_364" x1="196.803" y1="364.217" x2="196.803" y2="315.388" gradientUnits="userSpaceOnUse"><stop stop-color="#A4FFFF"/><stop offset="1" stop-color="#A4FFFF" stop-opacity="0"/></linearGradient><linearGradient id="paint2_linear_3_364" x1="92.88" y1="267.943" x2="92.88" y2="197.923" gradientUnits="userSpaceOnUse"><stop stop-color="#A4FFFF"/><stop offset="1" stop-color="#A4FFFF" stop-opacity="0"/></linearGradient><linearGradient id="paint3_linear_3_364" x1="92.879" y1="251.561" x2="92.879" y2="125.179" gradientUnits="userSpaceOnUse"><stop stop-color="#A4FFFF"/><stop offset="1" stop-color="#A4FFFF" stop-opacity="0"/></linearGradient><linearGradient id="paint4_linear_3_364" x1="46.956" y1="129.083" x2="46.956" y2="59.063" gradientUnits="userSpaceOnUse"><stop stop-color="#A4FFFF"/><stop offset="1" stop-color="#A4FFFF" stop-opacity="0"/></linearGradient><linearGradient id="paint5_linear_3_364" x1="46.955" y1="129.083" x2="46.955" y2="59.064" gradientUnits="userSpaceOnUse"><stop stop-color="#A4FFFF"/><stop offset="1" stop-color="#A4FFFF" stop-opacity="0"/></linearGradient><linearGradient id="paint6_linear_3_364" x1="171.667" y1="199.207" x2="171.667" y2="129.166" gradientUnits="userSpaceOnUse"><stop stop-color="#A4FFFF"/><stop offset="1" stop-color="#A4FFFF" stop-opacity="0"/></linearGradient><linearGradient id="paint7_linear_3_364" x1="171.666" y1="199.213" x2="171.666" y2="129.194" gradientUnits="userSpaceOnUse"><stop stop-color="#A4FFFF"/><stop offset="1" stop-color="#A4FFFF" stop-opacity="0"/></linearGradient><linearGradient id="paint8_linear_3_364" x1="299.209" y1="206.234" x2="299.209" y2="136.214" gradientUnits="userSpaceOnUse"><stop stop-color="#A4FFFF"/><stop offset="1" stop-color="#A4FFFF" stop-opacity="0"/></linearGradient><linearGradient id="paint9_linear_3_364" x1="299.207" y1="206.234" x2="299.207" y2="136.215" gradientUnits="userSpaceOnUse"><stop stop-color="#A4FFFF"/><stop offset="1" stop-color="#A4FFFF" stop-opacity="0"/></linearGradient><linearGradient id="paint10_linear_3_364" x1="159.845" y1="256.788" x2="159.845" y2="132.089" gradientUnits="userSpaceOnUse"><stop stop-color="#A4FFFF"/><stop offset="1" stop-color="#A4FFFF" stop-opacity="0"/></linearGradient><linearGradient id="paint11_linear_3_364" x1="159.846" y1="256.79" x2="159.846" y2="132.092" gradientUnits="userSpaceOnUse"><stop stop-color="#A4FFFF"/><stop offset="1" stop-color="#A4FFFF" stop-opacity="0"/></linearGradient><linearGradient id="paint12_linear_3_364" x1="183.3" y1="226.18" x2="183.3" y2="101.481" gradientUnits="userSpaceOnUse"><stop stop-color="#A4FFFF"/><stop offset="1" stop-color="#A4FFFF" stop-opacity="0"/></linearGradient><linearGradient id="paint13_linear_3_364" x1="183.301" y1="233.675" x2="183.301" y2="134.127" gradientUnits="userSpaceOnUse"><stop stop-color="#A4FFFF"/><stop offset="1" stop-color="#A4FFFF" stop-opacity="0"/></linearGradient><linearGradient id="paint14_linear_3_364" x1="125.82" y1="403.166" x2="125.82" y2="278.467" gradientUnits="userSpaceOnUse"><stop stop-color="#A4FFFF"/><stop offset="1" stop-color="#A4FFFF" stop-opacity="0"/></linearGradient><linearGradient id="paint15_linear_3_364" x1="125.82" y1="371.961" x2="125.82" y2="142.573" gradientUnits="userSpaceOnUse"><stop stop-color="#A4FFFF"/><stop offset="1" stop-color="#A4FFFF" stop-opacity="0"/></linearGradient><linearGradient id="paint16_linear_3_364" x1="243.327" y1="269.841" x2="243.327" y2="145.104" gradientUnits="userSpaceOnUse"><stop stop-color="#A4FFFF"/><stop offset="1" stop-color="#A4FFFF" stop-opacity="0"/></linearGradient><linearGradient id="paint17_linear_3_364" x1="243.327" y1="238.647" x2="243.327" y2="9.259" gradientUnits="userSpaceOnUse"><stop stop-color="#A4FFFF"/><stop offset="1" stop-color="#A4FFFF" stop-opacity="0"/></linearGradient><linearGradient id="paint18_linear_3_364" x1="304.486" y1="287.022" x2="304.486" y2="162.288" gradientUnits="userSpaceOnUse"><stop stop-color="#A4FFFF"/><stop offset="1" stop-color="#A4FFFF" stop-opacity="0"/></linearGradient><linearGradient id="paint19_linear_3_364" x1="304.486" y1="255.831" x2="304.486" y2="26.441" gradientUnits="userSpaceOnUse"><stop stop-color="#A4FFFF"/><stop offset="1" stop-color="#A4FFFF" stop-opacity="0"/></linearGradient><linearGradient id="paint20_linear_3_364" x1="57.656" y1="470.758" x2="57.656" y2="346.06" gradientUnits="userSpaceOnUse"><stop stop-color="#A4FFFF"/><stop offset="1" stop-color="#A4FFFF" stop-opacity="0"/></linearGradient><linearGradient id="paint21_linear_3_364" x1="57.656" y1="439.554" x2="57.656" y2="210.168" gradientUnits="userSpaceOnUse"><stop stop-color="#A4FFFF"/><stop offset="1" stop-color="#A4FFFF" stop-opacity="0"/></linearGradient><linearGradient id="paint22_linear_3_364" x1="315.467" y1="349.146" x2="315.467" y2="224.485" gradientUnits="userSpaceOnUse"><stop stop-color="#A4FFFF"/><stop offset="1" stop-color="#A4FFFF" stop-opacity="0"/></linearGradient><linearGradient id="paint23_linear_3_364" x1="315.467" y1="317.93" x2="315.467" y2="88.543" gradientUnits="userSpaceOnUse"><stop stop-color="#A4FFFF"/><stop offset="1" stop-color="#A4FFFF" stop-opacity="0"/></linearGradient><linearGradient id="paint24_linear_3_364" x1="4.926" y1="388.719" x2="4.926" y2="264.02" gradientUnits="userSpaceOnUse"><stop stop-color="#A4FFFF"/><stop offset="1" stop-color="#A4FFFF" stop-opacity="0"/></linearGradient><linearGradient id="paint25_linear_3_364" x1="4.927" y1="388.058" x2="4.927" y2="261.146" gradientUnits="userSpaceOnUse"><stop stop-color="#A4FFFF"/><stop offset="1" stop-color="#A4FFFF" stop-opacity="0"/></linearGradient><linearGradient id="paint26_linear_3_364" x1="74.386" y1="203.61" x2="74.386" y2="78.912" gradientUnits="userSpaceOnUse"><stop stop-color="#A4FFFF"/><stop offset="1" stop-color="#A4FFFF" stop-opacity="0"/></linearGradient><linearGradient id="paint27_linear_3_364" x1="74.387" y1="213.385" x2="74.387" y2="121.474" gradientUnits="userSpaceOnUse"><stop stop-color="#A4FFFF"/><stop offset="1" stop-color="#A4FFFF" stop-opacity="0"/></linearGradient><linearGradient id="paint28_linear_3_364" x1="294.022" y1="420.716" x2="294.022" y2="296.055" gradientUnits="userSpaceOnUse"><stop stop-color="#A4FFFF"/><stop offset="1" stop-color="#A4FFFF" stop-opacity="0"/></linearGradient><linearGradient id="paint29_linear_3_364" x1="294.021" y1="420.044" x2="294.021" y2="293.129" gradientUnits="userSpaceOnUse"><stop stop-color="#A4FFFF"/><stop offset="1" stop-color="#A4FFFF" stop-opacity="0"/></linearGradient></defs></svg>