<svg width="823" height="457" fill="none" xmlns="http://www.w3.org/2000/svg"><g opacity=".3"><path d="M156.264 152.123a3.22 3.22 0 11-6.439 0 3.22 3.22 0 016.439 0z" fill="url(#paint0_linear_3_9651)"/><path d="M153.578 153.98h-1.066v49.595h1.066V153.98z" fill="url(#paint1_linear_3_9651)"/><path d="M239.313 224.136a3.22 3.22 0 11-6.439 0 3.22 3.22 0 016.439 0z" fill="url(#paint2_linear_3_9651)"/><path d="M236.627 225.992h-1.066v128.363h1.066V225.992z" fill="url(#paint3_linear_3_9651)"/><path d="M6.499 204.542a3.22 3.22 0 11-3.22-3.219c1.778-.02 3.22 1.422 3.22 3.219z" fill="url(#paint4_linear_3_9651)"/><path d="M3.813 206.399H2.746v128.362h1.067V206.399z" fill="url(#paint5_linear_3_9651)"/><path d="M583.084 172.605a3.22 3.22 0 11-3.219-3.22c1.777-.019 3.219 1.423 3.219 3.22z" fill="url(#paint6_linear_3_9651)"/><path d="M580.398 174.461h-1.066v71.104h1.066v-71.104z" fill="url(#paint7_linear_3_9651)"/><path d="M729.136 260.142a3.22 3.22 0 11-6.44-.002 3.22 3.22 0 016.44.002z" fill="url(#paint8_linear_3_9651)"/><path d="M726.45 261.999h-1.066v71.123h1.066v-71.123z" fill="url(#paint9_linear_3_9651)"/><path d="M689.123 335.808a3.22 3.22 0 01-6.439 0 3.22 3.22 0 013.219-3.219 3.233 3.233 0 013.22 3.219z" fill="url(#paint10_linear_3_9651)"/><path d="M686.417 337.665h-1.067v71.104h1.067v-71.104z" fill="url(#paint11_linear_3_9651)"/><path d="M656.95 319.474a3.22 3.22 0 01-6.439 0 3.22 3.22 0 016.439 0z" fill="url(#paint12_linear_3_9651)"/><path d="M654.264 321.331h-1.067v71.124h1.067v-71.124z" fill="url(#paint13_linear_3_9651)"/><path d="M604.513 135.868a3.22 3.22 0 11-3.219-3.22 3.232 3.232 0 013.219 3.22z" fill="url(#paint14_linear_3_9651)"/><path d="M601.807 137.725h-1.066v71.104h1.066v-71.104z" fill="url(#paint15_linear_3_9651)"/><path d="M554.684 342.958a3.22 3.22 0 01-6.439 0 3.22 3.22 0 016.439 0z" fill="url(#paint16_linear_3_9651)"/><path d="M551.997 344.815h-1.066v71.104h1.066v-71.104z" fill="url(#paint17_linear_3_9651)"/><path d="M375.017 297.925a3.22 3.22 0 01-6.439 0 3.22 3.22 0 016.439 0z" fill="url(#paint18_linear_3_9651)"/><path d="M372.33 299.782h-1.066v71.124h1.066v-71.124z" fill="url(#paint19_linear_3_9651)"/><path d="M643.539 346.118a3.22 3.22 0 11-6.44 0 3.22 3.22 0 016.44 0z" fill="url(#paint20_linear_3_9651)"/><path d="M640.833 347.975h-1.066v35.552h1.066v-35.552z" fill="url(#paint21_linear_3_9651)"/><path d="M522.096 167.391a3.22 3.22 0 11-3.22-3.22c1.778-.02 3.22 1.422 3.22 3.22z" fill="url(#paint22_linear_3_9651)"/><path d="M519.41 169.247h-1.067v35.552h1.067v-35.552z" fill="url(#paint23_linear_3_9651)"/><path d="M751.217 415.8a3.22 3.22 0 11-6.439 0 3.22 3.22 0 016.439 0z" fill="url(#paint24_linear_3_9651)"/><path d="M748.531 417.657h-1.067v35.552h1.067v-35.552z" fill="url(#paint25_linear_3_9651)"/><path d="M707.312 355.777a3.22 3.22 0 11-3.219-3.22c1.778-.019 3.219 1.422 3.219 3.22z" fill="url(#paint26_linear_3_9651)"/><path d="M704.626 357.614h-1.066v35.552h1.066v-35.552z" fill="url(#paint27_linear_3_9651)"/><path d="M603.229 405.016a3.22 3.22 0 11-6.44 0 3.22 3.22 0 016.44 0z" fill="url(#paint28_linear_3_9651)"/><path d="M600.543 406.873h-1.066v35.552h1.066v-35.552z" fill="url(#paint29_linear_3_9651)"/><path d="M648.042 144.835a3.219 3.219 0 11-6.437 0 3.219 3.219 0 016.437 0z" fill="url(#paint30_linear_3_9651)"/><path d="M645.336 146.692h-1.066v71.123h1.066v-71.123z" fill="url(#paint31_linear_3_9651)"/><path d="M757.201 273.533a3.22 3.22 0 11-6.44 0 3.22 3.22 0 016.44 0z" fill="url(#paint32_linear_3_9651)"/><path d="M754.495 275.39h-1.066v71.104h1.066V275.39z" fill="url(#paint33_linear_3_9651)"/><path d="M555.394 182.579a3.219 3.219 0 11-3.219-3.219c1.778-.02 3.219 1.441 3.219 3.219z" fill="url(#paint34_linear_3_9651)"/><path d="M552.708 184.436h-1.066v71.123h1.066v-71.123z" fill="url(#paint35_linear_3_9651)"/><path d="M822.989 298.735a3.22 3.22 0 11-3.219-3.219c1.777-.02 3.219 1.422 3.219 3.219z" fill="url(#paint36_linear_3_9651)"/><path d="M820.303 300.592h-1.067v71.123h1.067v-71.123z" fill="url(#paint37_linear_3_9651)"/><path d="M477.934 53.822a3.22 3.22 0 11-6.439 0 3.22 3.22 0 016.439 0z" fill="url(#paint38_linear_3_9651)"/><path d="M475.248 55.679h-1.066v245.368h1.066V55.679z" fill="url(#paint39_linear_3_9651)"/><path d="M783.528 16.453a3.22 3.22 0 11-3.219-3.22c1.758-.02 3.219 1.442 3.219 3.22z" fill="url(#paint40_linear_3_9651)"/><path d="M780.822 18.31h-1.066v376.613h1.066V18.309z" fill="url(#paint41_linear_3_9651)"/><path d="M176.35 279.063a3.22 3.22 0 11-6.44 0 3.22 3.22 0 016.44 0z" fill="url(#paint42_linear_3_9651)"/><path d="M173.664 280.92h-1.067v71.124h1.067V280.92z" fill="url(#paint43_linear_3_9651)"/><path d="M46.216 303.101a3.22 3.22 0 11-3.219-3.22c1.778-.02 3.22 1.442 3.22 3.22z" fill="url(#paint44_linear_3_9651)"/><path d="M43.53 304.957h-1.066v71.104h1.066v-71.104z" fill="url(#paint45_linear_3_9651)"/><path d="M74.42 273.454a3.22 3.22 0 11-6.44 0 3.22 3.22 0 016.44 0z" fill="url(#paint46_linear_3_9651)"/><path d="M71.734 275.311h-1.067v71.124h1.067v-71.124z" fill="url(#paint47_linear_3_9651)"/><path d="M185.791 219.613a3.22 3.22 0 11-6.44-.002 3.22 3.22 0 016.44.002z" fill="url(#paint48_linear_3_9651)"/><path d="M183.105 221.469h-1.067v133.379h1.067V221.469z" fill="url(#paint49_linear_3_9651)"/><path d="M167.048 244.084a3.22 3.22 0 01-6.439 0 3.22 3.22 0 013.219-3.219c1.778-.02 3.22 1.422 3.22 3.219z" fill="url(#paint50_linear_3_9651)"/><path d="M164.362 245.941h-1.067v106.478h1.067V245.941z" fill="url(#paint51_linear_3_9651)"/><path d="M212.986 102.627a3.22 3.22 0 11-6.439 0 3.22 3.22 0 016.439 0z" fill="url(#paint52_linear_3_9651)"/><path d="M210.3 104.484h-1.066v245.368h1.066V104.484z" fill="url(#paint53_linear_3_9651)"/><path d="M119.075 209.164a3.22 3.22 0 01-6.439 0 3.22 3.22 0 016.439 0z" fill="url(#paint54_linear_3_9651)"/><path d="M116.389 211.021h-1.067v245.368h1.067V211.021z" fill="url(#paint55_linear_3_9651)"/><path d="M70.213 195.437a3.22 3.22 0 11-6.44 0 3.22 3.22 0 016.44 0z" fill="url(#paint56_linear_3_9651)"/><path d="M67.527 197.294H66.46v245.368h1.067V197.294z" fill="url(#paint57_linear_3_9651)"/><path d="M264.238 51.827a3.22 3.22 0 100-6.438 3.22 3.22 0 000 6.438z" fill="url(#paint58_linear_3_9651)"/><path d="M264.771 50.464h-1.066v245.368h1.066V50.464z" fill="url(#paint59_linear_3_9651)"/><path d="M12.78 3.22a3.22 3.22 0 11-6.44-.001 3.22 3.22 0 016.44 0z" fill="url(#paint60_linear_3_9651)"/><path d="M10.093 5.076H9.027v245.368h1.066V5.076z" fill="url(#paint61_linear_3_9651)"/><path d="M574.038 143.906a3.22 3.22 0 11-6.44 0 3.22 3.22 0 016.44 0z" fill="url(#paint62_linear_3_9651)"/><path d="M571.353 145.763h-1.067v245.368h1.067V145.763z" fill="url(#paint63_linear_3_9651)"/><path d="M61.444 145.803a3.22 3.22 0 11-3.22-3.22 3.233 3.233 0 013.22 3.22z" fill="url(#paint64_linear_3_9651)"/><path d="M58.738 147.659h-1.067v245.368h1.067V147.659z" fill="url(#paint65_linear_3_9651)"/><path d="M660.761 71.993a3.22 3.22 0 11-3.219-3.22 3.232 3.232 0 013.219 3.22z" fill="url(#paint66_linear_3_9651)"/><path d="M658.056 73.85h-1.067v245.368h1.067V73.85z" fill="url(#paint67_linear_3_9651)"/><path d="M792.021 91.764a3.22 3.22 0 11-6.44-.002 3.22 3.22 0 016.44.002z" fill="url(#paint68_linear_3_9651)"/><path d="M789.335 93.62h-1.067v245.368h1.067V93.62z" fill="url(#paint69_linear_3_9651)"/><path d="M592.604 262.314a3.22 3.22 0 01-6.439 0 3.22 3.22 0 016.439 0z" fill="url(#paint70_linear_3_9651)"/><path d="M589.898 264.171h-1.067V399.92h1.067V264.171z" fill="url(#paint71_linear_3_9651)"/><path d="M735.871 190.045a3.22 3.22 0 11-3.219-3.219c1.777-.02 3.219 1.422 3.219 3.219z" fill="url(#paint72_linear_3_9651)"/><path d="M733.165 191.882h-1.066v135.749h1.066V191.882z" fill="url(#paint73_linear_3_9651)"/><path d="M309.604 114.181a3.22 3.22 0 11-3.219-3.219c1.777-.02 3.219 1.441 3.219 3.219z" fill="url(#paint74_linear_3_9651)"/><path d="M306.918 116.038h-1.066v135.749h1.066V116.038z" fill="url(#paint75_linear_3_9651)"/><path d="M254.086 262.117a3.22 3.22 0 11-3.219-3.22c1.778-.019 3.219 1.442 3.219 3.22z" fill="url(#paint76_linear_3_9651)"/><path d="M251.4 263.973h-1.066v98.321h1.066v-98.321z" fill="url(#paint77_linear_3_9651)"/><path d="M78.567 88.623a3.22 3.22 0 11-3.22-3.22c1.778-.019 3.22 1.423 3.22 3.22z" fill="url(#paint78_linear_3_9651)"/><path d="M75.881 90.48h-1.066v135.749h1.066V90.479z" fill="url(#paint79_linear_3_9651)"/></g><defs><linearGradient id="paint0_linear_3_9651" x1="153.037" y1="170.236" x2="153.037" y2="226.179" gradientUnits="userSpaceOnUse"><stop stop-color="#A4FFFF"/><stop offset="1" stop-color="#A4FFFF" stop-opacity="0"/></linearGradient><linearGradient id="paint1_linear_3_9651" x1="153.038" y1="165.319" x2="153.038" y2="204.343" gradientUnits="userSpaceOnUse"><stop stop-color="#A4FFFF"/><stop offset="1" stop-color="#A4FFFF" stop-opacity="0"/></linearGradient><linearGradient id="paint2_linear_3_9651" x1="236.088" y1="242.258" x2="236.088" y2="298.217" gradientUnits="userSpaceOnUse"><stop stop-color="#A4FFFF"/><stop offset="1" stop-color="#A4FFFF" stop-opacity="0"/></linearGradient><linearGradient id="paint3_linear_3_9651" x1="236.088" y1="255.351" x2="236.088" y2="356.354" gradientUnits="userSpaceOnUse"><stop stop-color="#A4FFFF"/><stop offset="1" stop-color="#A4FFFF" stop-opacity="0"/></linearGradient><linearGradient id="paint4_linear_3_9651" x1="3.274" y1="222.655" x2="3.274" y2="278.614" gradientUnits="userSpaceOnUse"><stop stop-color="#A4FFFF"/><stop offset="1" stop-color="#A4FFFF" stop-opacity="0"/></linearGradient><linearGradient id="paint5_linear_3_9651" x1="3.274" y1="235.748" x2="3.274" y2="336.752" gradientUnits="userSpaceOnUse"><stop stop-color="#A4FFFF"/><stop offset="1" stop-color="#A4FFFF" stop-opacity="0"/></linearGradient><linearGradient id="paint6_linear_3_9651" x1="579.867" y1="190.716" x2="579.867" y2="246.675" gradientUnits="userSpaceOnUse"><stop stop-color="#A4FFFF"/><stop offset="1" stop-color="#A4FFFF" stop-opacity="0"/></linearGradient><linearGradient id="paint7_linear_3_9651" x1="579.865" y1="190.717" x2="579.865" y2="246.674" gradientUnits="userSpaceOnUse"><stop stop-color="#A4FFFF"/><stop offset="1" stop-color="#A4FFFF" stop-opacity="0"/></linearGradient><linearGradient id="paint8_linear_3_9651" x1="725.914" y1="278.275" x2="725.914" y2="334.249" gradientUnits="userSpaceOnUse"><stop stop-color="#A4FFFF"/><stop offset="1" stop-color="#A4FFFF" stop-opacity="0"/></linearGradient><linearGradient id="paint9_linear_3_9651" x1="725.914" y1="278.269" x2="725.914" y2="334.23" gradientUnits="userSpaceOnUse"><stop stop-color="#A4FFFF"/><stop offset="1" stop-color="#A4FFFF" stop-opacity="0"/></linearGradient><linearGradient id="paint10_linear_3_9651" x1="685.887" y1="353.935" x2="685.887" y2="409.893" gradientUnits="userSpaceOnUse"><stop stop-color="#A4FFFF"/><stop offset="1" stop-color="#A4FFFF" stop-opacity="0"/></linearGradient><linearGradient id="paint11_linear_3_9651" x1="685.887" y1="353.936" x2="685.887" y2="409.893" gradientUnits="userSpaceOnUse"><stop stop-color="#A4FFFF"/><stop offset="1" stop-color="#A4FFFF" stop-opacity="0"/></linearGradient><linearGradient id="paint12_linear_3_9651" x1="653.731" y1="337.592" x2="653.731" y2="393.551" gradientUnits="userSpaceOnUse"><stop stop-color="#A4FFFF"/><stop offset="1" stop-color="#A4FFFF" stop-opacity="0"/></linearGradient><linearGradient id="paint13_linear_3_9651" x1="653.732" y1="337.592" x2="653.732" y2="393.55" gradientUnits="userSpaceOnUse"><stop stop-color="#A4FFFF"/><stop offset="1" stop-color="#A4FFFF" stop-opacity="0"/></linearGradient><linearGradient id="paint14_linear_3_9651" x1="601.279" y1="153.991" x2="601.279" y2="209.932" gradientUnits="userSpaceOnUse"><stop stop-color="#A4FFFF"/><stop offset="1" stop-color="#A4FFFF" stop-opacity="0"/></linearGradient><linearGradient id="paint15_linear_3_9651" x1="601.278" y1="153.997" x2="601.278" y2="209.954" gradientUnits="userSpaceOnUse"><stop stop-color="#A4FFFF"/><stop offset="1" stop-color="#A4FFFF" stop-opacity="0"/></linearGradient><linearGradient id="paint16_linear_3_9651" x1="551.46" y1="361.083" x2="551.46" y2="417.042" gradientUnits="userSpaceOnUse"><stop stop-color="#A4FFFF"/><stop offset="1" stop-color="#A4FFFF" stop-opacity="0"/></linearGradient><linearGradient id="paint17_linear_3_9651" x1="551.461" y1="361.084" x2="551.461" y2="417.041" gradientUnits="userSpaceOnUse"><stop stop-color="#A4FFFF"/><stop offset="1" stop-color="#A4FFFF" stop-opacity="0"/></linearGradient><linearGradient id="paint18_linear_3_9651" x1="371.787" y1="316.052" x2="371.787" y2="372.011" gradientUnits="userSpaceOnUse"><stop stop-color="#A4FFFF"/><stop offset="1" stop-color="#A4FFFF" stop-opacity="0"/></linearGradient><linearGradient id="paint19_linear_3_9651" x1="371.787" y1="316.052" x2="371.787" y2="372.011" gradientUnits="userSpaceOnUse"><stop stop-color="#A4FFFF"/><stop offset="1" stop-color="#A4FFFF" stop-opacity="0"/></linearGradient><linearGradient id="paint20_linear_3_9651" x1="640.308" y1="364.24" x2="640.308" y2="420.199" gradientUnits="userSpaceOnUse"><stop stop-color="#A4FFFF"/><stop offset="1" stop-color="#A4FFFF" stop-opacity="0"/></linearGradient><linearGradient id="paint21_linear_3_9651" x1="640.307" y1="356.108" x2="640.307" y2="384.087" gradientUnits="userSpaceOnUse"><stop stop-color="#A4FFFF"/><stop offset="1" stop-color="#A4FFFF" stop-opacity="0"/></linearGradient><linearGradient id="paint22_linear_3_9651" x1="518.878" y1="185.502" x2="518.878" y2="241.461" gradientUnits="userSpaceOnUse"><stop stop-color="#A4FFFF"/><stop offset="1" stop-color="#A4FFFF" stop-opacity="0"/></linearGradient><linearGradient id="paint23_linear_3_9651" x1="518.878" y1="177.37" x2="518.878" y2="205.349" gradientUnits="userSpaceOnUse"><stop stop-color="#A4FFFF"/><stop offset="1" stop-color="#A4FFFF" stop-opacity="0"/></linearGradient><linearGradient id="paint24_linear_3_9651" x1="747.998" y1="433.923" x2="747.998" y2="489.881" gradientUnits="userSpaceOnUse"><stop stop-color="#A4FFFF"/><stop offset="1" stop-color="#A4FFFF" stop-opacity="0"/></linearGradient><linearGradient id="paint25_linear_3_9651" x1="747.999" y1="425.79" x2="747.999" y2="453.769" gradientUnits="userSpaceOnUse"><stop stop-color="#A4FFFF"/><stop offset="1" stop-color="#A4FFFF" stop-opacity="0"/></linearGradient><linearGradient id="paint26_linear_3_9651" x1="704.096" y1="373.894" x2="704.096" y2="429.868" gradientUnits="userSpaceOnUse"><stop stop-color="#A4FFFF"/><stop offset="1" stop-color="#A4FFFF" stop-opacity="0"/></linearGradient><linearGradient id="paint27_linear_3_9651" x1="704.096" y1="365.756" x2="704.096" y2="393.735" gradientUnits="userSpaceOnUse"><stop stop-color="#A4FFFF"/><stop offset="1" stop-color="#A4FFFF" stop-opacity="0"/></linearGradient><linearGradient id="paint28_linear_3_9651" x1="600.011" y1="423.137" x2="600.011" y2="479.096" gradientUnits="userSpaceOnUse"><stop stop-color="#A4FFFF"/><stop offset="1" stop-color="#A4FFFF" stop-opacity="0"/></linearGradient><linearGradient id="paint29_linear_3_9651" x1="600.009" y1="415.005" x2="600.009" y2="442.982" gradientUnits="userSpaceOnUse"><stop stop-color="#A4FFFF"/><stop offset="1" stop-color="#A4FFFF" stop-opacity="0"/></linearGradient><linearGradient id="paint30_linear_3_9651" x1="644.811" y1="162.96" x2="644.811" y2="218.919" gradientUnits="userSpaceOnUse"><stop stop-color="#A4FFFF"/><stop offset="1" stop-color="#A4FFFF" stop-opacity="0"/></linearGradient><linearGradient id="paint31_linear_3_9651" x1="644.812" y1="162.96" x2="644.812" y2="218.919" gradientUnits="userSpaceOnUse"><stop stop-color="#A4FFFF"/><stop offset="1" stop-color="#A4FFFF" stop-opacity="0"/></linearGradient><linearGradient id="paint32_linear_3_9651" x1="753.968" y1="291.659" x2="753.968" y2="347.618" gradientUnits="userSpaceOnUse"><stop stop-color="#A4FFFF"/><stop offset="1" stop-color="#A4FFFF" stop-opacity="0"/></linearGradient><linearGradient id="paint33_linear_3_9651" x1="753.969" y1="291.658" x2="753.969" y2="347.615" gradientUnits="userSpaceOnUse"><stop stop-color="#A4FFFF"/><stop offset="1" stop-color="#A4FFFF" stop-opacity="0"/></linearGradient><linearGradient id="paint34_linear_3_9651" x1="552.167" y1="200.7" x2="552.167" y2="256.676" gradientUnits="userSpaceOnUse"><stop stop-color="#A4FFFF"/><stop offset="1" stop-color="#A4FFFF" stop-opacity="0"/></linearGradient><linearGradient id="paint35_linear_3_9651" x1="552.166" y1="200.695" x2="552.166" y2="256.654" gradientUnits="userSpaceOnUse"><stop stop-color="#A4FFFF"/><stop offset="1" stop-color="#A4FFFF" stop-opacity="0"/></linearGradient><linearGradient id="paint36_linear_3_9651" x1="819.76" y1="316.849" x2="819.76" y2="372.808" gradientUnits="userSpaceOnUse"><stop stop-color="#A4FFFF"/><stop offset="1" stop-color="#A4FFFF" stop-opacity="0"/></linearGradient><linearGradient id="paint37_linear_3_9651" x1="819.759" y1="316.849" x2="819.759" y2="372.807" gradientUnits="userSpaceOnUse"><stop stop-color="#A4FFFF"/><stop offset="1" stop-color="#A4FFFF" stop-opacity="0"/></linearGradient><linearGradient id="paint38_linear_3_9651" x1="474.711" y1="85.385" x2="474.711" y2="185.043" gradientUnits="userSpaceOnUse"><stop stop-color="#A4FFFF"/><stop offset="1" stop-color="#A4FFFF" stop-opacity="0"/></linearGradient><linearGradient id="paint39_linear_3_9651" x1="474.71" y1="110.323" x2="474.71" y2="293.646" gradientUnits="userSpaceOnUse"><stop stop-color="#A4FFFF"/><stop offset="1" stop-color="#A4FFFF" stop-opacity="0"/></linearGradient><linearGradient id="paint40_linear_3_9651" x1="780.294" y1="48.009" x2="780.294" y2="147.666" gradientUnits="userSpaceOnUse"><stop stop-color="#A4FFFF"/><stop offset="1" stop-color="#A4FFFF" stop-opacity="0"/></linearGradient><linearGradient id="paint41_linear_3_9651" x1="780.293" y1="102.177" x2="780.293" y2="383.57" gradientUnits="userSpaceOnUse"><stop stop-color="#A4FFFF"/><stop offset="1" stop-color="#A4FFFF" stop-opacity="0"/></linearGradient><linearGradient id="paint42_linear_3_9651" x1="173.126" y1="297.191" x2="173.126" y2="353.167" gradientUnits="userSpaceOnUse"><stop stop-color="#A4FFFF"/><stop offset="1" stop-color="#A4FFFF" stop-opacity="0"/></linearGradient><linearGradient id="paint43_linear_3_9651" x1="173.126" y1="297.187" x2="173.126" y2="353.145" gradientUnits="userSpaceOnUse"><stop stop-color="#A4FFFF"/><stop offset="1" stop-color="#A4FFFF" stop-opacity="0"/></linearGradient><linearGradient id="paint44_linear_3_9651" x1="42.996" y1="321.216" x2="42.996" y2="377.175" gradientUnits="userSpaceOnUse"><stop stop-color="#A4FFFF"/><stop offset="1" stop-color="#A4FFFF" stop-opacity="0"/></linearGradient><linearGradient id="paint45_linear_3_9651" x1="42.996" y1="321.217" x2="42.996" y2="377.174" gradientUnits="userSpaceOnUse"><stop stop-color="#A4FFFF"/><stop offset="1" stop-color="#A4FFFF" stop-opacity="0"/></linearGradient><linearGradient id="paint46_linear_3_9651" x1="71.201" y1="291.576" x2="71.201" y2="347.535" gradientUnits="userSpaceOnUse"><stop stop-color="#A4FFFF"/><stop offset="1" stop-color="#A4FFFF" stop-opacity="0"/></linearGradient><linearGradient id="paint47_linear_3_9651" x1="71.203" y1="291.576" x2="71.203" y2="347.534" gradientUnits="userSpaceOnUse"><stop stop-color="#A4FFFF"/><stop offset="1" stop-color="#A4FFFF" stop-opacity="0"/></linearGradient><linearGradient id="paint48_linear_3_9651" x1="182.572" y1="251.173" x2="182.572" y2="350.83" gradientUnits="userSpaceOnUse"><stop stop-color="#A4FFFF"/><stop offset="1" stop-color="#A4FFFF" stop-opacity="0"/></linearGradient><linearGradient id="paint49_linear_3_9651" x1="182.572" y1="251.172" x2="182.572" y2="350.829" gradientUnits="userSpaceOnUse"><stop stop-color="#A4FFFF"/><stop offset="1" stop-color="#A4FFFF" stop-opacity="0"/></linearGradient><linearGradient id="paint50_linear_3_9651" x1="163.829" y1="275.634" x2="163.829" y2="375.291" gradientUnits="userSpaceOnUse"><stop stop-color="#A4FFFF"/><stop offset="1" stop-color="#A4FFFF" stop-opacity="0"/></linearGradient><linearGradient id="paint51_linear_3_9651" x1="163.828" y1="269.644" x2="163.828" y2="349.202" gradientUnits="userSpaceOnUse"><stop stop-color="#A4FFFF"/><stop offset="1" stop-color="#A4FFFF" stop-opacity="0"/></linearGradient><linearGradient id="paint52_linear_3_9651" x1="209.764" y1="134.19" x2="209.764" y2="233.847" gradientUnits="userSpaceOnUse"><stop stop-color="#A4FFFF"/><stop offset="1" stop-color="#A4FFFF" stop-opacity="0"/></linearGradient><linearGradient id="paint53_linear_3_9651" x1="209.764" y1="159.129" x2="209.764" y2="342.453" gradientUnits="userSpaceOnUse"><stop stop-color="#A4FFFF"/><stop offset="1" stop-color="#A4FFFF" stop-opacity="0"/></linearGradient><linearGradient id="paint54_linear_3_9651" x1="115.858" y1="240.733" x2="115.858" y2="340.39" gradientUnits="userSpaceOnUse"><stop stop-color="#A4FFFF"/><stop offset="1" stop-color="#A4FFFF" stop-opacity="0"/></linearGradient><linearGradient id="paint55_linear_3_9651" x1="115.858" y1="265.671" x2="115.858" y2="448.995" gradientUnits="userSpaceOnUse"><stop stop-color="#A4FFFF"/><stop offset="1" stop-color="#A4FFFF" stop-opacity="0"/></linearGradient><linearGradient id="paint56_linear_3_9651" x1="66.984" y1="227.003" x2="66.984" y2="326.66" gradientUnits="userSpaceOnUse"><stop stop-color="#A4FFFF"/><stop offset="1" stop-color="#A4FFFF" stop-opacity="0"/></linearGradient><linearGradient id="paint57_linear_3_9651" x1="66.983" y1="251.94" x2="66.983" y2="435.263" gradientUnits="userSpaceOnUse"><stop stop-color="#A4FFFF"/><stop offset="1" stop-color="#A4FFFF" stop-opacity="0"/></linearGradient><linearGradient id="paint58_linear_3_9651" x1="264.236" y1="80.173" x2="264.236" y2="179.83" gradientUnits="userSpaceOnUse"><stop stop-color="#A4FFFF"/><stop offset="1" stop-color="#A4FFFF" stop-opacity="0"/></linearGradient><linearGradient id="paint59_linear_3_9651" x1="264.237" y1="105.11" x2="264.237" y2="288.432" gradientUnits="userSpaceOnUse"><stop stop-color="#A4FFFF"/><stop offset="1" stop-color="#A4FFFF" stop-opacity="0"/></linearGradient><linearGradient id="paint60_linear_3_9651" x1="9.55" y1="34.786" x2="9.55" y2="134.443" gradientUnits="userSpaceOnUse"><stop stop-color="#A4FFFF"/><stop offset="1" stop-color="#A4FFFF" stop-opacity="0"/></linearGradient><linearGradient id="paint61_linear_3_9651" x1="9.55" y1="59.723" x2="9.55" y2="243.047" gradientUnits="userSpaceOnUse"><stop stop-color="#A4FFFF"/><stop offset="1" stop-color="#A4FFFF" stop-opacity="0"/></linearGradient><linearGradient id="paint62_linear_3_9651" x1="570.817" y1="175.471" x2="570.817" y2="275.127" gradientUnits="userSpaceOnUse"><stop stop-color="#A4FFFF"/><stop offset="1" stop-color="#A4FFFF" stop-opacity="0"/></linearGradient><linearGradient id="paint63_linear_3_9651" x1="570.817" y1="200.408" x2="570.817" y2="383.731" gradientUnits="userSpaceOnUse"><stop stop-color="#A4FFFF"/><stop offset="1" stop-color="#A4FFFF" stop-opacity="0"/></linearGradient><linearGradient id="paint64_linear_3_9651" x1="58.208" y1="177.373" x2="58.208" y2="277.03" gradientUnits="userSpaceOnUse"><stop stop-color="#A4FFFF"/><stop offset="1" stop-color="#A4FFFF" stop-opacity="0"/></linearGradient><linearGradient id="paint65_linear_3_9651" x1="58.208" y1="202.31" x2="58.208" y2="385.633" gradientUnits="userSpaceOnUse"><stop stop-color="#A4FFFF"/><stop offset="1" stop-color="#A4FFFF" stop-opacity="0"/></linearGradient><linearGradient id="paint66_linear_3_9651" x1="657.527" y1="103.553" x2="657.527" y2="203.21" gradientUnits="userSpaceOnUse"><stop stop-color="#A4FFFF"/><stop offset="1" stop-color="#A4FFFF" stop-opacity="0"/></linearGradient><linearGradient id="paint67_linear_3_9651" x1="657.526" y1="128.491" x2="657.526" y2="311.813" gradientUnits="userSpaceOnUse"><stop stop-color="#A4FFFF"/><stop offset="1" stop-color="#A4FFFF" stop-opacity="0"/></linearGradient><linearGradient id="paint68_linear_3_9651" x1="788.792" y1="123.327" x2="788.792" y2="222.984" gradientUnits="userSpaceOnUse"><stop stop-color="#A4FFFF"/><stop offset="1" stop-color="#A4FFFF" stop-opacity="0"/></linearGradient><linearGradient id="paint69_linear_3_9651" x1="788.792" y1="148.264" x2="788.792" y2="331.587" gradientUnits="userSpaceOnUse"><stop stop-color="#A4FFFF"/><stop offset="1" stop-color="#A4FFFF" stop-opacity="0"/></linearGradient><linearGradient id="paint70_linear_3_9651" x1="589.372" y1="293.882" x2="589.372" y2="393.57" gradientUnits="userSpaceOnUse"><stop stop-color="#A4FFFF"/><stop offset="1" stop-color="#A4FFFF" stop-opacity="0"/></linearGradient><linearGradient id="paint71_linear_3_9651" x1="589.372" y1="294.398" x2="589.372" y2="395.826" gradientUnits="userSpaceOnUse"><stop stop-color="#A4FFFF"/><stop offset="1" stop-color="#A4FFFF" stop-opacity="0"/></linearGradient><linearGradient id="paint72_linear_3_9651" x1="732.638" y1="221.588" x2="732.638" y2="321.214" gradientUnits="userSpaceOnUse"><stop stop-color="#A4FFFF"/><stop offset="1" stop-color="#A4FFFF" stop-opacity="0"/></linearGradient><linearGradient id="paint73_linear_3_9651" x1="732.638" y1="222.123" x2="732.638" y2="323.551" gradientUnits="userSpaceOnUse"><stop stop-color="#A4FFFF"/><stop offset="1" stop-color="#A4FFFF" stop-opacity="0"/></linearGradient><linearGradient id="paint74_linear_3_9651" x1="306.375" y1="145.736" x2="306.375" y2="245.393" gradientUnits="userSpaceOnUse"><stop stop-color="#A4FFFF"/><stop offset="1" stop-color="#A4FFFF" stop-opacity="0"/></linearGradient><linearGradient id="paint75_linear_3_9651" x1="306.375" y1="146.264" x2="306.375" y2="247.691" gradientUnits="userSpaceOnUse"><stop stop-color="#A4FFFF"/><stop offset="1" stop-color="#A4FFFF" stop-opacity="0"/></linearGradient><linearGradient id="paint76_linear_3_9651" x1="250.867" y1="293.672" x2="250.867" y2="393.329" gradientUnits="userSpaceOnUse"><stop stop-color="#A4FFFF"/><stop offset="1" stop-color="#A4FFFF" stop-opacity="0"/></linearGradient><linearGradient id="paint77_linear_3_9651" x1="250.866" y1="285.861" x2="250.866" y2="359.315" gradientUnits="userSpaceOnUse"><stop stop-color="#A4FFFF"/><stop offset="1" stop-color="#A4FFFF" stop-opacity="0"/></linearGradient><linearGradient id="paint78_linear_3_9651" x1="75.346" y1="120.17" x2="75.346" y2="219.812" gradientUnits="userSpaceOnUse"><stop stop-color="#A4FFFF"/><stop offset="1" stop-color="#A4FFFF" stop-opacity="0"/></linearGradient><linearGradient id="paint79_linear_3_9651" x1="75.346" y1="120.702" x2="75.346" y2="222.13" gradientUnits="userSpaceOnUse"><stop stop-color="#A4FFFF"/><stop offset="1" stop-color="#A4FFFF" stop-opacity="0"/></linearGradient></defs></svg>