<svg width="118" height="26" fill="none" xmlns="http://www.w3.org/2000/svg"><g clip-path="url(#clip0_2:231)" fill="#fff"><path d="M8.925 14.162l6.946 10.969a.866.866 0 00.758.39h2.573a.866.866 0 00.818-.546.884.884 0 00.065-.342V1.404a.903.903 0 00-.6-.84.884.884 0 00-.986.288L8.925 13.096a.973.973 0 000 1.066zM1.117 25.517h4.582a.868.868 0 00.818-.546.885.885 0 00.065-.342v-5.89a.905.905 0 00-.602-.837.886.886 0 00-.986.287l-4.582 5.89a.906.906 0 00.24 1.299.89.89 0 00.465.14zm81.844-13.244a1.615 1.615 0 00-.17-.18l-.096-.082-.048-.042a4.134 4.134 0 00-.708-.484 4.632 4.632 0 00-.861-.406 5.754 5.754 0 00-.946-.252 5.51 5.51 0 00-2.494.128 6.06 6.06 0 00-1.387.591 5.85 5.85 0 00-1.175.914c-.35.357-.659.753-.92 1.18-.267.43-.47.897-.605 1.385a5.68 5.68 0 000 3.092c.138.487.342.952.605 1.383.261.427.57.823.92 1.18.354.355.75.663 1.179.916.437.247.9.445 1.38.59a5.34 5.34 0 002.564.127c.327-.054.648-.146.955-.274.294-.12.579-.264.852-.428a7.59 7.59 0 00.782-.539c.072-.063.14-.13.202-.203l.032-.036a.719.719 0 00.133-.244l.012-.073a.614.614 0 00-.079-.335l-.028-.045a.697.697 0 00-.075-.102l-.074-.101c-.15-.203-.29-.406-.441-.593a.635.635 0 00-.234-.17.427.427 0 00-.276 0 1.162 1.162 0 00-.345.237l-.132.113c-.132.11-.202.181-.386.311a2.853 2.853 0 01-.531.323c-.204.105-.42.181-.644.228a3.49 3.49 0 01-2.188-.232 3.954 3.954 0 01-2.007-2.057 3.65 3.65 0 010-2.964c.197-.461.475-.883.822-1.243a4.334 4.334 0 011.187-.849 3.2 3.2 0 012.048-.244c.23.054.457.126.677.216.21.09.411.195.604.316.403.24.858.927 1.3.382l.639-.865a.38.38 0 00.067-.29.575.575 0 00-.11-.279zm-39.294 9.208L36.68 5.453a.644.644 0 00-.588-.406h-1.12a.63.63 0 00-.587.392L27.38 21.463a.626.626 0 00.04.621.631.631 0 00.543.3h1.034a.618.618 0 00.588-.391l1.68-3.955h8.494l1.67 3.955a.643.643 0 00.591.406h1.008a.625.625 0 00.544-.254.66.66 0 00.094-.664zm-11.506-5.484l.029-.063 3.367-7.9 3.377 7.963h-6.773zm75.491-1.215a6.005 6.005 0 00-.806-1.74 5.817 5.817 0 00-.911-.974 4.09 4.09 0 00-1.082-.698 5.905 5.905 0 00-1.209-.451 5.464 5.464 0 00-2.837.054c-.475.133-.93.332-1.35.59-.417.261-.801.57-1.147.922-.339.35-.627.749-.854 1.182a5.939 5.939 0 00-.55 1.4 5.521 5.521 0 00-.125 2.388 5.944 5.944 0 00.983 2.665c.266.358.571.683.911.97.323.29.689.526 1.084.702.385.194.791.345 1.209.448a5.51 5.51 0 004.185-.643 6.33 6.33 0 001.147-.92c.329-.337.607-.722.824-1.142l.018-.04a.372.372 0 00.032-.389.3.3 0 00-.256-.158h-1.67a.458.458 0 00-.369.173c-.21.257-.456.483-.729.67a3.67 3.67 0 01-3.204.364 4.09 4.09 0 01-1.08-.594 3.074 3.074 0 01-.78-.932 5.055 5.055 0 01-.36-1.219l-.01-.052h.056l8.584-.019c.352 0 .552-.22.552-.61a5.918 5.918 0 00-.256-1.947zm-1.827.766l-6.947.032.018-.059a4.19 4.19 0 01.514-1.115c.275-.408.623-.76 1.028-1.038A3.67 3.67 0 01103.65 13c.388.142.752.342 1.08.594.321.256.587.575.782.938.17.299.292.623.361.96l.012.056h-.06zM56 20.666c.346-.357.65-.753.904-1.18.253-.439.45-.909.587-1.397a5.704 5.704 0 000-3.09 6.1 6.1 0 00-.587-1.397 5.887 5.887 0 00-2.083-2.1 6.164 6.164 0 00-1.368-.591 5.495 5.495 0 00-3.73.235c-.496.228-.96.522-1.377.876l-.074.063v-.626a.522.522 0 00-.343-.548.51.51 0 00-.227-.025h-.879a.525.525 0 00-.586.573v13.483a.56.56 0 00.336.53c.068.03.142.045.216.045h.896a.602.602 0 00.428-.16.555.555 0 00.159-.407v-3.94l.074.063c.412.349.87.638 1.36.859a5.491 5.491 0 003.728.235 5.994 5.994 0 001.387-.59 5.81 5.81 0 001.179-.91zm-2.666-.564a3.353 3.353 0 01-2.85 0 3.63 3.63 0 01-1.183-.861 4.105 4.105 0 01-.806-1.242 3.828 3.828 0 010-2.939c.195-.451.468-.864.806-1.219.34-.353.74-.64 1.183-.845a3.358 3.358 0 012.848 0c.436.208.831.493 1.166.843.333.356.6.769.79 1.22a3.805 3.805 0 010 2.936 4.475 4.475 0 01-.792 1.247c-.328.36-.723.652-1.162.86zm8.201-9.2h-.878a.523.523 0 00-.56.349.534.534 0 00-.027.234V24.95a.563.563 0 00.16.406.546.546 0 00.392.16h.895a.602.602 0 00.427-.16.546.546 0 00.16-.406v-3.94l.074.063c.412.349.87.638 1.362.859a5.488 5.488 0 003.728.235 6.03 6.03 0 001.386-.59c.43-.256.826-.565 1.18-.92.345-.358.647-.754.902-1.181.252-.44.45-.909.587-1.397a5.673 5.673 0 000-3.09 5.87 5.87 0 00-2.668-3.498 6.259 6.259 0 00-1.37-.59 5.498 5.498 0 00-3.73.235c-.497.227-.96.522-1.377.875l-.08.084v-.61a.523.523 0 00-.335-.554.51.51 0 00-.228-.029zm.794 4.172c.195-.45.468-.863.806-1.218a3.945 3.945 0 011.179-.853 3.361 3.361 0 012.848 0c.442.206.842.493 1.182.845.333.355.6.768.79 1.218a3.79 3.79 0 010 2.937c-.191.46-.459.882-.792 1.25-.329.359-.724.65-1.162.859a3.367 3.367 0 01-2.852 0 3.645 3.645 0 01-1.18-.861 4.08 4.08 0 01-.807-1.242 3.83 3.83 0 01-.012-2.935zm32.211-3.755a.53.53 0 00-.155-.43.516.516 0 00-.432-.143h-.884a.511.511 0 00-.545.343c-.025.074-.034.152-.025.23v6.463c.007.379-.075.754-.238 1.095a2.35 2.35 0 01-.604.812c-.252.21-.536.375-.841.49a2.665 2.665 0 01-2.12-.11 2.27 2.27 0 01-.785-.678 2.406 2.406 0 01-.43-.914 4.488 4.488 0 01-.133-1.032v-5.96a1.04 1.04 0 00-.13-.558.68.68 0 00-.559-.203h-.637a.691.691 0 00-.514.203.795.795 0 00-.201.587v5.95a6.08 6.08 0 00.286 1.915c.186.576.48 1.11.865 1.576.385.455.867.816 1.41 1.056a5.164 5.164 0 002.983.286c.27-.065.534-.156.787-.27.237-.11.456-.256.651-.43l.14-.13.076-.076v.453a.499.499 0 00.14.362.543.543 0 00.446.203h.895a.539.539 0 00.393-.158.485.485 0 00.16-.407V11.32zm22.494 6.325a2.953 2.953 0 00-.79-1.016 4.772 4.772 0 00-1.209-.725 8.432 8.432 0 00-1.527-.475 5.36 5.36 0 01-.749-.23 2.862 2.862 0 01-.625-.32 1.417 1.417 0 01-.581-.69 1.085 1.085 0 010-.647c.071-.238.369-.892 1.522-.965 1.102-.069 1.656.514 1.847.774.029.037.299.388.492.61a.607.607 0 00.115.08.506.506 0 00.482-.062l.673-.504a.494.494 0 00.239-.427v-.02a1.145 1.145 0 00-.153-.368 8.807 8.807 0 00-.645-.824 3.166 3.166 0 00-.713-.628 3.271 3.271 0 00-.894-.388 4.79 4.79 0 00-2.725.106 3.348 3.348 0 00-1.209.66 2.96 2.96 0 00-.792 1.04 3.216 3.216 0 00-.036 2.57c.165.37.41.698.715.962a5.43 5.43 0 001.078.725 8.23 8.23 0 001.411.516c.143.033.286.071.435.112.149.04.294.08.441.114.261.063.514.157.752.28.201.097.378.235.522.406a1.093 1.093 0 01-.022 1.258 1.896 1.896 0 01-.532.47 2.57 2.57 0 01-.671.277 2.74 2.74 0 01-1.209 0 3.049 3.049 0 01-.604-.228 2.585 2.585 0 01-.543-.365 3.006 3.006 0 01-.389-.553.865.865 0 00-.224-.308.504.504 0 00-.558-.063l-.806.384a.522.522 0 00-.288.274.45.45 0 00-.02.254.818.818 0 00.063.247c.139.369.337.712.586 1.016.276.332.613.608.991.813a3.84 3.84 0 001.141.457c.924.22 1.889.19 2.797-.09a3.766 3.766 0 001.319-.674c.378-.287.682-.662.885-1.093a3.262 3.262 0 00.008-2.742z"/></g><defs><clipPath id="clip0_2:231"><path fill="#fff" transform="translate(.234 .517)" d="M0 0h117.188v25H0z"/></clipPath></defs></svg>