<svg width="118" height="26" fill="none" xmlns="http://www.w3.org/2000/svg"><g clip-path="url(#clip0_2:270)" fill="#fff"><path d="M16.388 14.44c-.04.048-.078.097-.12.142l-.001.009-3.983 4.455-.006-.002a2.844 2.844 0 01-.925.694 2.581 2.581 0 01-1.093.244H6.34a.539.539 0 00-.226.05.59.59 0 00-.193.143.67.67 0 00-.128.215.729.729 0 00-.045.253v3.915h-.012a.84.84 0 01-.163.39.711.711 0 01-.32.238.64.64 0 01-.385.016.695.695 0 01-.336-.21l-.002.002-3.612-4.037.003-.007a3.21 3.21 0 01-.647-1.047 3.503 3.503 0 01-.227-1.247V8.554c0-.856.303-1.632.795-2.205L.84 6.344l4.095-4.58h.002c.531-.583 1.246-.91 1.99-.909h3.333c.425 0 .827.107 1.188.294V1.14c.31.161.59.377.826.643l.005-.003 4.86 5.436.001 6.377h5.688v9.909c.002.006.002.012.002.018v.224a1.674 1.674 0 01-.45 1.054c-.263.275-.61.428-.97.428h-2.85c-.198 0-.392-.046-.573-.134a1.442 1.442 0 01-.475-.38 1.642 1.642 0 01-.3-.562 1.77 1.77 0 01-.072-.648v-9.909l-.752.846zm-5.532-.838a.537.537 0 00.227-.05.59.59 0 00.192-.144.67.67 0 00.128-.214.728.728 0 00.045-.253V7.894a.729.729 0 00-.045-.253.672.672 0 00-.128-.214.59.59 0 00-.192-.144.537.537 0 00-.227-.05H6.34a.562.562 0 00-.418.193.704.704 0 00-.174.467v5.046c0 .366.265.661.592.661h4.515l.002.002z"/><path d="M17.144 13.601h5.687l-5.687-6.375V13.6zm13.75-7.434h5.264c2.15 0 4.058 0 5.207 1.845.501.83.742 2.01.742 3.005 0 .808-.149 1.597-.445 2.28-1.13 2.612-3.54 2.675-5.32 2.715h-2.167V20.8h-3.281V6.168zm3.282 2.695v4.435h1.967c1.224 0 2.708-.04 2.708-2.3 0-2.136-1.651-2.136-2.597-2.136h-2.078zm11.862 2.236c.63-.602 1.316-1.078 2.798-1.244v2.82l-.945.164c-1.37.27-1.78.498-1.78 1.866v6.094h-2.853V9.958h2.78v1.14zm13.936 4.267c0 2.737-1.408 5.742-5.19 5.742-2.724 0-5.207-1.741-5.207-5.742 0-3.316 1.871-5.949 5.579-5.72 3.947.249 4.818 3.752 4.818 5.72zm-7.043-2.133c-.352.622-.481 1.37-.481 2.117 0 1.723.74 3.238 2.334 3.238 1.54 0 2.299-1.39 2.299-3.092 0-1.204-.26-2.138-.797-2.72-.593-.622-1.26-.643-1.668-.601-.816.062-1.297.373-1.686 1.058zm9.36-4.335c0-.538.037-1.265.408-1.845.352-.539 1.149-1.099 2.484-1.099.574 0 1.15.104 1.704.186v2.385h-.685c-1.075 0-1.13.249-1.112 1.7h1.909v1.948h-1.89v8.623h-2.836v-8.623h-1.52v-1.949h1.539V8.897zm6.134-.282h2.816V6.148h-2.816v2.467zm0 12.188h2.816V9.963h-2.816v10.84zm5.726-13.958h2.836v3.378h1.872v1.948h-1.89v4.872c-.019.663-.019 1.223.741 1.223l1.02-.042v2.487c-.612.104-.983.167-1.501.167-.984 0-2.058-.063-2.67-1.058-.389-.642-.407-1.409-.407-2.445V12.15h-1.409v-1.948h1.408V6.845zm15.416-.678c.39 1.575.778 3.151 1.203 4.727.724 2.818.854 3.274 1.262 6.114.388-2.902.481-3.399 1.074-6.384.278-1.493.574-2.985.853-4.457h3.243l-3.317 14.634H90.51c-.407-1.616-.797-3.234-1.223-4.83-.704-2.694-.742-2.798-1.131-4.85-.333 1.804-.37 1.949-1.112 4.747l-1.26 4.933h-3.373L79.095 6.167h3.262c1.409 6.944 1.558 7.71 1.946 10.882.481-2.901.612-3.461 1.297-6.363l1.075-4.519h2.892zm17.217 11.879c-.334.56-.668 1.099-1.168 1.617a5.016 5.016 0 01-3.651 1.534c-2.873 0-4.893-2.052-4.893-5.597 0-2.61 1.149-5.969 4.967-5.969.575 0 2.242.062 3.484 1.555 1.261 1.513 1.334 3.627 1.372 4.85h-6.913c-.019 1.346.667 2.695 2.206 2.695 1.556 0 2.093-1.14 2.446-1.908l2.15 1.223zm-2.837-4.01c-.055-.454-.129-1.052-.537-1.526-.353-.393-.888-.6-1.39-.6-.685 0-1.167.372-1.445.703-.39.475-.482.97-.575 1.424h3.947zm4.6 6.764h2.854V6.168h-2.854v14.634zm5.405 0h2.854V6.168h-2.854v14.634z"/></g><defs><clipPath id="clip0_2:270"><path fill="#fff" transform="translate(.047 .517)" d="M0 0h117.188v25H0z"/></clipPath></defs></svg>