<svg width="428" height="617" fill="none" xmlns="http://www.w3.org/2000/svg"><g opacity=".2"><path d="M90.282 180.923a4.029 4.029 0 111.475-5.503c1.1 1.905.451 4.391-1.475 5.503z" fill="url(#paint0_linear_3_367)"/><path d="M8.838 222.494l.667 1.156 77.05-44.485-.666-1.156-77.051 44.485z" fill="url(#paint1_linear_3_367)"/><path d="M86.77 393.956a4.03 4.03 0 01-4.028-6.977 4.03 4.03 0 014.028 6.977z" fill="url(#paint2_linear_3_367)"/><path d="M5.338 435.549l.667 1.156 77.073-44.498-.667-1.156-77.073 44.498z" fill="url(#paint3_linear_3_367)"/><path d="M143.466 181.152a4.029 4.029 0 11-4.028-6.978 4.029 4.029 0 014.028 6.978z" fill="url(#paint4_linear_3_367)"/><path d="M62.021 222.723l.667 1.156 77.051-44.485-.667-1.156-77.051 44.485z" fill="url(#paint5_linear_3_367)"/><path d="M57.774 111.568a4.029 4.029 0 111.474-5.503c1.1 1.905.452 4.391-1.474 5.503z" fill="url(#paint6_linear_3_367)"/><path d="M14.855 130.896l.667 1.156 38.526-22.243-.668-1.155-38.525 22.242z" fill="url(#paint7_linear_3_367)"/><path d="M160.984 233.934a4.028 4.028 0 11-4.029-6.977 4.028 4.028 0 014.029 6.977z" fill="url(#paint8_linear_3_367)"/><path d="M79.551 275.527l.668 1.156 77.072-44.498-.667-1.156-77.073 44.498z" fill="url(#paint9_linear_3_367)"/><path d="M89.819 432.748a4.03 4.03 0 11-4.028-6.98 4.03 4.03 0 014.028 6.98z" fill="url(#paint10_linear_3_367)"/><path d="M8.396 474.307l.667 1.156 77.05-44.486-.666-1.155-77.051 44.485z" fill="url(#paint11_linear_3_367)"/><path d="M62.115 157.147a4.03 4.03 0 01-4.028-6.977 4.03 4.03 0 015.503 1.474c1.133 1.914.473 4.379-1.475 5.503z" fill="url(#paint12_linear_3_367)"/><path d="M-19.296 198.727l.668 1.156 77.072-44.498-.667-1.155-77.073 44.497z" fill="url(#paint13_linear_3_367)"/><path d="M103.691 519.797a4.029 4.029 0 11-4.028-6.979 4.029 4.029 0 014.028 6.979z" fill="url(#paint14_linear_3_367)"/><path d="M22.259 561.39l.667 1.156L100 518.048l-.668-1.156L22.26 561.39z" fill="url(#paint15_linear_3_367)"/><path d="M353.34 213.199a4.03 4.03 0 01-4.029-6.978 4.029 4.029 0 015.503 1.475c1.134 1.914.452 4.39-1.474 5.503z" fill="url(#paint16_linear_3_367)"/><path d="M83.09 363.806l.667 1.155 265.89-153.512-.667-1.155L83.09 363.806z" fill="url(#paint17_linear_3_367)"/><path d="M384.873 300.439a4.03 4.03 0 01-4.028-6.978 4.029 4.029 0 015.503 1.475c1.133 1.914.473 4.378-1.475 5.503z" fill="url(#paint18_linear_3_367)"/><path d="M-27.613 533.137l.667 1.156L381.19 298.656l-.667-1.156-408.136 235.637z" fill="url(#paint19_linear_3_367)"/><path d="M115.688 153.156a4.03 4.03 0 01-4.029-6.977 4.03 4.03 0 014.029 6.977z" fill="url(#paint20_linear_3_367)"/><path d="M-154.563 303.763l.668 1.156 265.89-153.512-.667-1.156-265.891 153.512z" fill="url(#paint21_linear_3_367)"/><path d="M247.876 202.145a4.03 4.03 0 111.475-5.503c1.133 1.914.452 4.391-1.475 5.503z" fill="url(#paint22_linear_3_367)"/><path d="M-22.365 352.718l.667 1.156 265.891-153.512-.667-1.156-265.891 153.512z" fill="url(#paint23_linear_3_367)"/><path d="M308.577 356.76a4.03 4.03 0 01-4.029-6.978 4.029 4.029 0 014.029 6.978z" fill="url(#paint24_linear_3_367)"/><path d="M38.327 507.367l.667 1.155 265.89-153.512-.667-1.155-265.89 153.512z" fill="url(#paint25_linear_3_367)"/><path d="M-1.008 247.356a4.029 4.029 0 111.474-5.503c1.134 1.914.473 4.378-1.474 5.503z" fill="url(#paint26_linear_3_367)"/><path d="M166.965 357.387a4.03 4.03 0 01-5.503-1.474 4.03 4.03 0 016.978-4.029 4.03 4.03 0 01-1.475 5.503z" fill="url(#paint27_linear_3_367)"/><path d="M15.49 439.391l.667 1.156 147.103-84.931-.667-1.155-147.103 84.93z" fill="url(#paint28_linear_3_367)"/></g><defs><linearGradient id="paint0_linear_3_367" x1="68.616" y1="188.76" x2="7.977" y2="223.77" gradientUnits="userSpaceOnUse"><stop stop-color="#A4FFFF"/><stop offset="1" stop-color="#A4FFFF" stop-opacity="0"/></linearGradient><linearGradient id="paint1_linear_3_367" x1="68.614" y1="188.758" x2="7.977" y2="223.767" gradientUnits="userSpaceOnUse"><stop stop-color="#A4FFFF"/><stop offset="1" stop-color="#A4FFFF" stop-opacity="0"/></linearGradient><linearGradient id="paint2_linear_3_367" x1="65.112" y1="401.81" x2="4.455" y2="436.83" gradientUnits="userSpaceOnUse"><stop stop-color="#A4FFFF"/><stop offset="1" stop-color="#A4FFFF" stop-opacity="0"/></linearGradient><linearGradient id="paint3_linear_3_367" x1="65.118" y1="401.806" x2="4.478" y2="436.817" gradientUnits="userSpaceOnUse"><stop stop-color="#A4FFFF"/><stop offset="1" stop-color="#A4FFFF" stop-opacity="0"/></linearGradient><linearGradient id="paint4_linear_3_367" x1="121.81" y1="188.987" x2="61.187" y2="223.987" gradientUnits="userSpaceOnUse"><stop stop-color="#A4FFFF"/><stop offset="1" stop-color="#A4FFFF" stop-opacity="0"/></linearGradient><linearGradient id="paint5_linear_3_367" x1="121.804" y1="188.989" x2="61.166" y2="223.998" gradientUnits="userSpaceOnUse"><stop stop-color="#A4FFFF"/><stop offset="1" stop-color="#A4FFFF" stop-opacity="0"/></linearGradient><linearGradient id="paint6_linear_3_367" x1="36.107" y1="119.404" x2="-24.532" y2="154.414" gradientUnits="userSpaceOnUse"><stop stop-color="#A4FFFF"/><stop offset="1" stop-color="#A4FFFF" stop-opacity="0"/></linearGradient><linearGradient id="paint7_linear_3_367" x1="44.92" y1="114.316" x2="14.601" y2="131.821" gradientUnits="userSpaceOnUse"><stop stop-color="#A4FFFF"/><stop offset="1" stop-color="#A4FFFF" stop-opacity="0"/></linearGradient><linearGradient id="paint8_linear_3_367" x1="139.327" y1="241.774" x2="78.689" y2="276.784" gradientUnits="userSpaceOnUse"><stop stop-color="#A4FFFF"/><stop offset="1" stop-color="#A4FFFF" stop-opacity="0"/></linearGradient><linearGradient id="paint9_linear_3_367" x1="139.328" y1="241.775" x2="78.69" y2="276.784" gradientUnits="userSpaceOnUse"><stop stop-color="#A4FFFF"/><stop offset="1" stop-color="#A4FFFF" stop-opacity="0"/></linearGradient><linearGradient id="paint10_linear_3_367" x1="68.162" y1="440.585" x2="7.523" y2="475.595" gradientUnits="userSpaceOnUse"><stop stop-color="#A4FFFF"/><stop offset="1" stop-color="#A4FFFF" stop-opacity="0"/></linearGradient><linearGradient id="paint11_linear_3_367" x1="68.163" y1="440.585" x2="7.526" y2="475.594" gradientUnits="userSpaceOnUse"><stop stop-color="#A4FFFF"/><stop offset="1" stop-color="#A4FFFF" stop-opacity="0"/></linearGradient><linearGradient id="paint12_linear_3_367" x1="40.466" y1="164.988" x2="-20.191" y2="200.008" gradientUnits="userSpaceOnUse"><stop stop-color="#A4FFFF"/><stop offset="1" stop-color="#A4FFFF" stop-opacity="0"/></linearGradient><linearGradient id="paint13_linear_3_367" x1="40.471" y1="164.983" x2="-20.167" y2="199.992" gradientUnits="userSpaceOnUse"><stop stop-color="#A4FFFF"/><stop offset="1" stop-color="#A4FFFF" stop-opacity="0"/></linearGradient><linearGradient id="paint14_linear_3_367" x1="82.028" y1="527.643" x2="21.389" y2="562.653" gradientUnits="userSpaceOnUse"><stop stop-color="#A4FFFF"/><stop offset="1" stop-color="#A4FFFF" stop-opacity="0"/></linearGradient><linearGradient id="paint15_linear_3_367" x1="82.028" y1="527.642" x2="21.39" y2="562.652" gradientUnits="userSpaceOnUse"><stop stop-color="#A4FFFF"/><stop offset="1" stop-color="#A4FFFF" stop-opacity="0"/></linearGradient><linearGradient id="paint16_linear_3_367" x1="317.126" y1="229.445" x2="209.134" y2="291.795" gradientUnits="userSpaceOnUse"><stop stop-color="#A4FFFF"/><stop offset="1" stop-color="#A4FFFF" stop-opacity="0"/></linearGradient><linearGradient id="paint17_linear_3_367" x1="290.103" y1="245.045" x2="91.447" y2="359.74" gradientUnits="userSpaceOnUse"><stop stop-color="#A4FFFF"/><stop offset="1" stop-color="#A4FFFF" stop-opacity="0"/></linearGradient><linearGradient id="paint18_linear_3_367" x1="348.662" y1="316.678" x2="240.669" y2="379.027" gradientUnits="userSpaceOnUse"><stop stop-color="#A4FFFF"/><stop offset="1" stop-color="#A4FFFF" stop-opacity="0"/></linearGradient><linearGradient id="paint19_linear_3_367" x1="289.963" y1="350.566" x2="-14.966" y2="526.617" gradientUnits="userSpaceOnUse"><stop stop-color="#A4FFFF"/><stop offset="1" stop-color="#A4FFFF" stop-opacity="0"/></linearGradient><linearGradient id="paint20_linear_3_367" x1="79.475" y1="169.414" x2="-28.517" y2="231.764" gradientUnits="userSpaceOnUse"><stop stop-color="#A4FFFF"/><stop offset="1" stop-color="#A4FFFF" stop-opacity="0"/></linearGradient><linearGradient id="paint21_linear_3_367" x1="52.452" y1="185.014" x2="-146.204" y2="299.708" gradientUnits="userSpaceOnUse"><stop stop-color="#A4FFFF"/><stop offset="1" stop-color="#A4FFFF" stop-opacity="0"/></linearGradient><linearGradient id="paint22_linear_3_367" x1="211.66" y1="218.386" x2="103.668" y2="280.736" gradientUnits="userSpaceOnUse"><stop stop-color="#A4FFFF"/><stop offset="1" stop-color="#A4FFFF" stop-opacity="0"/></linearGradient><linearGradient id="paint23_linear_3_367" x1="184.635" y1="233.988" x2="-14.019" y2="348.681" gradientUnits="userSpaceOnUse"><stop stop-color="#A4FFFF"/><stop offset="1" stop-color="#A4FFFF" stop-opacity="0"/></linearGradient><linearGradient id="paint24_linear_3_367" x1="272.36" y1="373.009" x2="164.368" y2="435.359" gradientUnits="userSpaceOnUse"><stop stop-color="#A4FFFF"/><stop offset="1" stop-color="#A4FFFF" stop-opacity="0"/></linearGradient><linearGradient id="paint25_linear_3_367" x1="245.338" y1="388.611" x2="46.682" y2="503.304" gradientUnits="userSpaceOnUse"><stop stop-color="#A4FFFF"/><stop offset="1" stop-color="#A4FFFF" stop-opacity="0"/></linearGradient><linearGradient id="paint26_linear_3_367" x1="-37.23" y1="263.604" x2="-145.256" y2="325.973" gradientUnits="userSpaceOnUse"><stop stop-color="#A4FFFF"/><stop offset="1" stop-color="#A4FFFF" stop-opacity="0"/></linearGradient><linearGradient id="paint27_linear_3_367" x1="130.747" y1="373.631" x2="22.787" y2="435.962" gradientUnits="userSpaceOnUse"><stop stop-color="#A4FFFF"/><stop offset="1" stop-color="#A4FFFF" stop-opacity="0"/></linearGradient><linearGradient id="paint28_linear_3_367" x1="130.167" y1="373.966" x2="20.256" y2="437.423" gradientUnits="userSpaceOnUse"><stop stop-color="#A4FFFF"/><stop offset="1" stop-color="#A4FFFF" stop-opacity="0"/></linearGradient></defs></svg>