<svg width="306" height="617" fill="none" xmlns="http://www.w3.org/2000/svg"><g opacity=".2"><path d="M283.712 435.302a4.03 4.03 0 014.028 6.978 4.03 4.03 0 01-4.028-6.978z" fill="url(#paint0_linear_3_434)"/><path d="M365.157 393.731l-.668-1.156-77.051 44.485.667 1.156 77.052-44.485z" fill="url(#paint1_linear_3_434)"/><path d="M266.194 382.52a4.029 4.029 0 114.029 6.978 4.029 4.029 0 01-4.029-6.978z" fill="url(#paint2_linear_3_434)"/><path d="M347.626 340.927l-.667-1.156-77.073 44.498.668 1.156 77.072-44.498z" fill="url(#paint3_linear_3_434)"/><path d="M73.838 403.256a4.03 4.03 0 014.028 6.977 4.03 4.03 0 01-5.503-1.474c-1.133-1.914-.451-4.391 1.475-5.503z" fill="url(#paint4_linear_3_434)"/><path d="M344.088 252.649l-.667-1.156-265.89 153.512.666 1.156 265.891-153.512z" fill="url(#paint5_linear_3_434)"/><path d="M42.304 316.016a4.03 4.03 0 014.029 6.977 4.03 4.03 0 01-5.503-1.474c-1.134-1.914-.473-4.379 1.474-5.503z" fill="url(#paint6_linear_3_434)"/><path d="M454.79 83.317l-.667-1.156L45.988 317.8l.667 1.155L454.79 83.317z" fill="url(#paint7_linear_3_434)"/><path d="M179.301 414.309a4.03 4.03 0 11-1.474 5.503c-1.134-1.914-.452-4.391 1.474-5.503z" fill="url(#paint8_linear_3_434)"/><path d="M449.543 263.736l-.668-1.156-265.89 153.512.667 1.156 265.891-153.512z" fill="url(#paint9_linear_3_434)"/><path d="M118.601 259.695a4.029 4.029 0 114.029 6.978 4.029 4.029 0 01-4.029-6.978z" fill="url(#paint10_linear_3_434)"/><path d="M388.851 109.088l-.667-1.156-265.891 153.512.667 1.156 265.891-153.512z" fill="url(#paint11_linear_3_434)"/><path d="M260.212 259.067a4.029 4.029 0 114.028 6.978 4.029 4.029 0 01-4.028-6.978z" fill="url(#paint12_linear_3_434)"/><path d="M411.688 177.063l-.667-1.156-147.104 84.931.667 1.155 147.104-84.93z" fill="url(#paint13_linear_3_434)"/></g><defs><linearGradient id="paint0_linear_3_434" x1="305.368" y1="427.467" x2="365.99" y2="392.467" gradientUnits="userSpaceOnUse"><stop stop-color="#A4FFFF"/><stop offset="1" stop-color="#A4FFFF" stop-opacity="0"/></linearGradient><linearGradient id="paint1_linear_3_434" x1="305.374" y1="427.465" x2="366.011" y2="392.456" gradientUnits="userSpaceOnUse"><stop stop-color="#A4FFFF"/><stop offset="1" stop-color="#A4FFFF" stop-opacity="0"/></linearGradient><linearGradient id="paint2_linear_3_434" x1="287.85" y1="374.68" x2="348.489" y2="339.67" gradientUnits="userSpaceOnUse"><stop stop-color="#A4FFFF"/><stop offset="1" stop-color="#A4FFFF" stop-opacity="0"/></linearGradient><linearGradient id="paint3_linear_3_434" x1="287.849" y1="374.679" x2="348.488" y2="339.67" gradientUnits="userSpaceOnUse"><stop stop-color="#A4FFFF"/><stop offset="1" stop-color="#A4FFFF" stop-opacity="0"/></linearGradient><linearGradient id="paint4_linear_3_434" x1="110.052" y1="387.009" x2="218.044" y2="324.659" gradientUnits="userSpaceOnUse"><stop stop-color="#A4FFFF"/><stop offset="1" stop-color="#A4FFFF" stop-opacity="0"/></linearGradient><linearGradient id="paint5_linear_3_434" x1="137.074" y1="371.409" x2="335.73" y2="256.715" gradientUnits="userSpaceOnUse"><stop stop-color="#A4FFFF"/><stop offset="1" stop-color="#A4FFFF" stop-opacity="0"/></linearGradient><linearGradient id="paint6_linear_3_434" x1="78.516" y1="299.777" x2="186.508" y2="237.427" gradientUnits="userSpaceOnUse"><stop stop-color="#A4FFFF"/><stop offset="1" stop-color="#A4FFFF" stop-opacity="0"/></linearGradient><linearGradient id="paint7_linear_3_434" x1="137.215" y1="265.888" x2="442.144" y2="89.837" gradientUnits="userSpaceOnUse"><stop stop-color="#A4FFFF"/><stop offset="1" stop-color="#A4FFFF" stop-opacity="0"/></linearGradient><linearGradient id="paint8_linear_3_434" x1="215.517" y1="398.068" x2="323.51" y2="335.718" gradientUnits="userSpaceOnUse"><stop stop-color="#A4FFFF"/><stop offset="1" stop-color="#A4FFFF" stop-opacity="0"/></linearGradient><linearGradient id="paint9_linear_3_434" x1="242.542" y1="382.466" x2="441.196" y2="267.773" gradientUnits="userSpaceOnUse"><stop stop-color="#A4FFFF"/><stop offset="1" stop-color="#A4FFFF" stop-opacity="0"/></linearGradient><linearGradient id="paint10_linear_3_434" x1="154.817" y1="243.445" x2="262.81" y2="181.095" gradientUnits="userSpaceOnUse"><stop stop-color="#A4FFFF"/><stop offset="1" stop-color="#A4FFFF" stop-opacity="0"/></linearGradient><linearGradient id="paint11_linear_3_434" x1="181.839" y1="227.844" x2="380.495" y2="113.15" gradientUnits="userSpaceOnUse"><stop stop-color="#A4FFFF"/><stop offset="1" stop-color="#A4FFFF" stop-opacity="0"/></linearGradient><linearGradient id="paint12_linear_3_434" x1="296.43" y1="242.823" x2="404.39" y2="180.492" gradientUnits="userSpaceOnUse"><stop stop-color="#A4FFFF"/><stop offset="1" stop-color="#A4FFFF" stop-opacity="0"/></linearGradient><linearGradient id="paint13_linear_3_434" x1="297.01" y1="242.488" x2="406.921" y2="179.031" gradientUnits="userSpaceOnUse"><stop stop-color="#A4FFFF"/><stop offset="1" stop-color="#A4FFFF" stop-opacity="0"/></linearGradient></defs></svg>